<svg xmlns="http://www.w3.org/2000/svg" xmlns:xlink="http://www.w3.org/1999/xlink" width="500" zoomAndPan="magnify" viewBox="0 0 375 374.999991" height="500" preserveAspectRatio="xMidYMid meet" version="1.0"><defs><clipPath id="180630de83"><path d="M 12.132812 76 L 289 76 L 289 352 L 12.132812 352 Z M 12.132812 76 " clip-rule="nonzero"/></clipPath><clipPath id="f4d523be4d"><path d="M 21 11.863281 L 362.863281 11.863281 L 362.863281 362.863281 L 21 362.863281 Z M 21 11.863281 " clip-rule="nonzero"/></clipPath></defs><g clip-path="url(#180630de83)"><path fill="#09181b" d="M 11.882812 187.496094 C 11.882812 167.003906 15.40625 147.335938 21.855469 129.050781 L 148.265625 76.988281 L 146.539062 89.855469 L 146.539062 102.804688 L 152.660156 126.472656 L 155.742188 136.71875 L 160.160156 146.539062 L 172.390625 182.332031 L 169.304688 212.972656 L 171.773438 227.976562 L 178.976562 244.621094 L 201.371094 261.679688 L 227.882812 268.050781 L 256.980469 256.980469 L 288.058594 288.058594 L 124.046875 351.289062 C 58.414062 325.847656 11.882812 262.109375 11.882812 187.496094 " fill-opacity="1" fill-rule="nonzero"/></g><g clip-path="url(#f4d523be4d)"><path fill="#172625" d="M 256.980469 256.980469 L 227.882812 268.050781 L 201.371094 261.679688 L 178.976562 244.621094 L 171.773438 227.976562 L 169.304688 212.972656 L 172.390625 182.332031 L 160.160156 146.539062 L 155.742188 136.71875 L 152.660156 126.472656 L 146.539062 102.804688 L 146.539062 89.855469 L 148.265625 76.988281 L 21.855469 129.050781 C 45.941406 60.796875 111 11.882812 187.496094 11.882812 C 284.488281 11.882812 363.113281 90.507812 363.113281 187.496094 C 363.113281 284.488281 284.488281 363.113281 187.496094 363.113281 C 165.121094 363.113281 143.722656 358.917969 124.046875 351.289062 L 288.058594 288.058594 L 256.980469 256.980469 " fill-opacity="1" fill-rule="nonzero"/></g><path fill="#01cdc9" d="M 176.207031 219.597656 C 185.945312 218.113281 195.652344 213.382812 203.523438 205.511719 C 211.996094 197.042969 216.820312 186.445312 217.886719 175.980469 C 210.304688 175.144531 202.773438 176.289062 196.152344 179.46875 C 194.496094 183.015625 192.203125 186.34375 189.273438 189.273438 C 186.34375 192.203125 183.015625 194.496094 179.46875 196.152344 C 176.050781 203.269531 174.988281 211.4375 176.207031 219.597656 Z M 189.84375 246.578125 C 204.101562 249.808594 220.648438 245.136719 232.8125 232.972656 C 245.097656 220.691406 249.734375 203.945312 246.316406 189.601562 C 240.925781 184.417969 234.730469 180.65625 228.273438 178.371094 C 226.710938 190.746094 220.929688 203.082031 211.011719 213 C 201.789062 222.222656 190.46875 227.871094 178.976562 229.875 C 181.335938 235.855469 184.972656 241.570312 189.84375 246.578125 Z M 251.015625 251.015625 C 262.636719 239.390625 264.640625 221.386719 257.605469 205.582031 C 256.089844 218.039062 250.285156 230.476562 240.300781 240.460938 C 230.429688 250.335938 218.15625 256.121094 205.835938 257.714844 C 221.578125 264.621094 239.457031 262.574219 251.015625 251.015625 Z M 76.988281 148.265625 C 78.269531 144.300781 82.375 142.082031 86.152344 143.300781 C 86.5625 143.433594 86.945312 143.609375 87.308594 143.808594 C 95.304688 143.617188 113.679688 144.171875 132.898438 151.648438 C 134.582031 147.558594 137.082031 143.726562 140.40625 140.40625 C 143.726562 137.082031 147.558594 134.582031 151.648438 132.898438 C 144.171875 113.679688 143.617188 95.304688 143.808594 87.308594 C 143.609375 86.945312 143.433594 86.5625 143.300781 86.152344 C 142.082031 82.375 144.300781 78.269531 148.265625 76.988281 C 152.230469 75.707031 156.433594 77.726562 157.660156 81.503906 C 158.882812 85.285156 156.660156 89.386719 152.695312 90.671875 C 151.992188 90.898438 151.285156 91.015625 150.585938 91.046875 C 150.355469 106.71875 152.808594 120.042969 156.699219 131.257812 C 168.011719 128.523438 180.441406 131.570312 189.273438 140.40625 C 196.574219 147.707031 199.917969 157.460938 199.316406 167.011719 C 217.566406 161.882812 239.03125 167.304688 254.5625 182.835938 C 274.195312 202.46875 277.6875 231.578125 264.101562 251.691406 L 288.058594 288.058594 L 251.691406 264.105469 C 231.578125 277.6875 202.46875 274.195312 182.835938 254.5625 C 167.304688 239.03125 161.882812 217.566406 167.011719 199.316406 C 157.460938 199.917969 147.707031 196.574219 140.40625 189.273438 C 131.570312 180.441406 128.523438 168.011719 131.257812 156.699219 C 120.042969 152.808594 106.71875 150.355469 91.046875 150.585938 C 91.015625 151.285156 90.898438 151.992188 90.671875 152.695312 C 89.386719 156.660156 85.285156 158.882812 81.503906 157.660156 C 77.726562 156.433594 75.703125 152.230469 76.988281 148.265625 " fill-opacity="1" fill-rule="nonzero"/><path fill="#01cdc9" d="M 215.570312 161.277344 C 228.019531 154.054688 234.929688 152.621094 241.621094 151.238281 C 248.441406 149.828125 255.492188 148.371094 267.339844 141.1875 C 271.289062 138.792969 274.933594 135.9375 278.171875 132.703125 C 280.121094 130.75 281.921875 128.664062 283.554688 126.472656 C 291.175781 127.613281 296.53125 130.59375 297.988281 135.25 C 301.121094 145.265625 285.832031 164.929688 261.980469 166.425781 C 239.523438 167.839844 240.675781 160.070312 215.570312 161.277344 " fill-opacity="1" fill-rule="nonzero"/><path fill="#01cdc9" d="M 132.703125 278.171875 C 135.9375 274.933594 138.792969 271.289062 141.1875 267.339844 C 148.371094 255.492188 149.828125 248.441406 151.238281 241.625 C 152.621094 234.929688 154.054688 228.019531 161.277344 215.574219 C 160.070312 240.675781 167.839844 239.523438 166.425781 261.980469 C 164.929688 285.832031 145.265625 301.121094 135.25 297.988281 C 130.59375 296.53125 127.613281 291.175781 126.472656 283.554688 C 128.664062 281.921875 130.75 280.121094 132.703125 278.171875 " fill-opacity="1" fill-rule="nonzero"/><path fill="#01cdc9" d="M 106.058594 233.335938 C 126.535156 212.859375 166.636719 200.039062 159.265625 212.398438 C 143.199219 239.335938 152.507812 242.21875 138.332031 265.605469 C 123.457031 290.140625 94.03125 295.457031 85.117188 286.546875 C 76.203125 277.632812 85.578125 253.808594 106.058594 233.335938 " fill-opacity="1" fill-rule="nonzero"/><path fill="#01cdc9" d="M 265.605469 138.332031 C 242.21875 152.507812 239.335938 143.199219 212.398438 159.265625 C 200.039062 166.636719 212.859375 126.535156 233.335938 106.058594 C 253.808594 85.578125 277.632812 76.207031 286.546875 85.117188 C 295.457031 94.03125 290.140625 123.457031 265.605469 138.332031 " fill-opacity="1" fill-rule="nonzero"/></svg>