<svg xmlns="http://www.w3.org/2000/svg" xmlns:xlink="http://www.w3.org/1999/xlink" width="600" zoomAndPan="magnify" viewBox="0 0 450 149.999998" height="200" preserveAspectRatio="xMidYMid meet" version="1.0"><defs><g/><clipPath id="8dc1bd559a"><path d="M 23.726562 32 L 131 32 L 131 139 L 23.726562 139 Z M 23.726562 32 " clip-rule="nonzero"/></clipPath><clipPath id="d50a95382b"><path d="M 27 7.15625 L 159.40625 7.15625 L 159.40625 142.90625 L 27 142.90625 Z M 27 7.15625 " clip-rule="nonzero"/></clipPath></defs><g fill="#ffffff" fill-opacity="1"><g transform="translate(174.768613, 101.692503)"><g><path d="M 6.3125 0 L 3.4375 0 C 2.75 0 2.53125 -0.367188 2.78125 -1.109375 L 21.25 -58.546875 C 21.4375 -59.285156 21.867188 -59.65625 22.546875 -59.65625 L 26.90625 -59.65625 C 27.519531 -59.65625 27.953125 -59.285156 28.203125 -58.546875 L 46.671875 -1.109375 C 46.859375 -0.367188 46.640625 0 46.015625 0 L 43.046875 0 C 42.429688 0 42.03125 -0.367188 41.84375 -1.109375 L 36.828125 -15.953125 L 12.53125 -15.953125 L 7.515625 -1.109375 C 7.265625 -0.367188 6.863281 0 6.3125 0 Z M 24.5 -54.5625 L 13.828125 -20.140625 L 35.625 -20.140625 L 24.859375 -54.5625 Z M 24.5 -54.5625 "/></g></g></g><g fill="#ffffff" fill-opacity="1"><g transform="translate(235.724843, 101.692503)"><g><path d="M 13.453125 -4.171875 L 31.265625 -4.171875 C 34.109375 -4.171875 36.285156 -4.957031 37.796875 -6.53125 C 39.316406 -8.113281 40.078125 -10.390625 40.078125 -13.359375 L 40.078125 -46.296875 C 40.078125 -49.265625 39.316406 -51.535156 37.796875 -53.109375 C 36.285156 -54.691406 34.109375 -55.484375 31.265625 -55.484375 L 13.453125 -55.484375 C 12.835938 -55.484375 12.53125 -55.203125 12.53125 -54.640625 L 12.53125 -5.015625 C 12.53125 -4.453125 12.835938 -4.171875 13.453125 -4.171875 Z M 7.890625 -1.109375 L 7.890625 -58.546875 C 7.890625 -59.285156 8.195312 -59.65625 8.8125 -59.65625 L 31.734375 -59.65625 C 35.753906 -59.65625 38.921875 -58.476562 41.234375 -56.125 C 43.554688 -53.78125 44.71875 -50.566406 44.71875 -46.484375 L 44.71875 -13.171875 C 44.71875 -9.085938 43.554688 -5.867188 41.234375 -3.515625 C 38.921875 -1.171875 35.753906 0 31.734375 0 L 8.8125 0 C 8.195312 0 7.890625 -0.367188 7.890625 -1.109375 Z M 7.890625 -1.109375 "/></g></g></g><g fill="#ffffff" fill-opacity="1"><g transform="translate(298.907739, 101.692503)"><g><path d="M 6.3125 0 L 3.4375 0 C 2.75 0 2.53125 -0.367188 2.78125 -1.109375 L 21.25 -58.546875 C 21.4375 -59.285156 21.867188 -59.65625 22.546875 -59.65625 L 26.90625 -59.65625 C 27.519531 -59.65625 27.953125 -59.285156 28.203125 -58.546875 L 46.671875 -1.109375 C 46.859375 -0.367188 46.640625 0 46.015625 0 L 43.046875 0 C 42.429688 0 42.03125 -0.367188 41.84375 -1.109375 L 36.828125 -15.953125 L 12.53125 -15.953125 L 7.515625 -1.109375 C 7.265625 -0.367188 6.863281 0 6.3125 0 Z M 24.5 -54.5625 L 13.828125 -20.140625 L 35.625 -20.140625 L 24.859375 -54.5625 Z M 24.5 -54.5625 "/></g></g></g><g fill="#ffffff" fill-opacity="1"><g transform="translate(359.86397, 101.692503)"><g><path d="M 7.515625 -13.171875 L 7.515625 -16.515625 C 7.515625 -17.191406 7.851562 -17.53125 8.53125 -17.53125 L 11.21875 -17.53125 C 11.90625 -17.53125 12.25 -17.191406 12.25 -16.515625 L 12.25 -13.453125 C 12.25 -7.265625 15.25 -4.171875 21.25 -4.171875 L 30.890625 -4.171875 C 36.890625 -4.171875 39.890625 -7.296875 39.890625 -13.546875 L 39.890625 -17.4375 C 39.890625 -20.164062 38.773438 -22.300781 36.546875 -23.84375 C 34.328125 -25.394531 31.640625 -26.507812 28.484375 -27.1875 C 25.328125 -27.863281 22.15625 -28.570312 18.96875 -29.3125 C 15.789062 -30.0625 13.085938 -31.425781 10.859375 -33.40625 C 8.628906 -35.382812 7.515625 -38.039062 7.515625 -41.375 L 7.515625 -46.484375 C 7.515625 -50.566406 8.6875 -53.78125 11.03125 -56.125 C 13.382812 -58.476562 16.570312 -59.65625 20.59375 -59.65625 L 31.359375 -59.65625 C 35.378906 -59.65625 38.5625 -58.476562 40.90625 -56.125 C 43.257812 -53.78125 44.4375 -50.566406 44.4375 -46.484375 L 44.4375 -43.890625 C 44.4375 -43.203125 44.097656 -42.859375 43.421875 -42.859375 L 40.734375 -42.859375 C 40.046875 -42.859375 39.703125 -43.203125 39.703125 -43.890625 L 39.703125 -46.203125 C 39.703125 -52.390625 36.703125 -55.484375 30.703125 -55.484375 L 21.15625 -55.484375 C 15.21875 -55.484375 12.25 -52.328125 12.25 -46.015625 L 12.25 -41.375 C 12.25 -37.113281 16.050781 -34.238281 23.65625 -32.75 C 26.8125 -32.132812 29.984375 -31.421875 33.171875 -30.609375 C 36.359375 -29.804688 39.0625 -28.351562 41.28125 -26.25 C 43.507812 -24.15625 44.625 -21.3125 44.625 -17.71875 L 44.625 -13.171875 C 44.625 -9.085938 43.445312 -5.867188 41.09375 -3.515625 C 38.75 -1.171875 35.566406 0 31.546875 0 L 20.59375 0 C 16.570312 0 13.382812 -1.171875 11.03125 -3.515625 C 8.6875 -5.867188 7.515625 -9.085938 7.515625 -13.171875 Z M 7.515625 -13.171875 "/></g></g></g><g clip-path="url(#8dc1bd559a)"><path fill="#09181b" d="M 23.730469 74.996094 C 23.730469 67.078125 25.09375 59.484375 27.585938 52.421875 L 76.410156 32.308594 L 75.742188 37.28125 L 75.742188 42.28125 L 78.109375 51.425781 L 79.300781 55.382812 L 81.003906 59.175781 L 85.730469 73 L 84.539062 84.835938 L 85.492188 90.628906 L 88.273438 97.058594 L 96.921875 103.648438 L 107.164062 106.109375 L 118.402344 101.832031 L 130.40625 113.835938 L 67.054688 138.257812 C 41.707031 128.433594 23.730469 103.8125 23.730469 74.996094 " fill-opacity="1" fill-rule="nonzero"/></g><g clip-path="url(#d50a95382b)"><path fill="#172625" d="M 118.402344 101.832031 L 107.164062 106.109375 L 96.921875 103.648438 L 88.273438 97.058594 L 85.492188 90.628906 L 84.539062 84.835938 L 85.730469 73 L 81.003906 59.175781 L 79.300781 55.382812 L 78.109375 51.425781 L 75.742188 42.28125 L 75.742188 37.28125 L 76.410156 32.308594 L 27.585938 52.421875 C 36.886719 26.054688 62.015625 7.164062 91.566406 7.164062 C 129.027344 7.164062 159.398438 37.53125 159.398438 74.996094 C 159.398438 112.457031 129.027344 142.828125 91.566406 142.828125 C 82.921875 142.828125 74.65625 141.207031 67.054688 138.257812 L 130.40625 113.835938 L 118.402344 101.832031 " fill-opacity="1" fill-rule="nonzero"/></g><path fill="#01cdc9" d="M 87.203125 87.394531 C 90.964844 86.820312 94.714844 84.992188 97.753906 81.953125 C 101.027344 78.679688 102.890625 74.589844 103.304688 70.546875 C 100.375 70.222656 97.464844 70.664062 94.90625 71.894531 C 94.265625 73.265625 93.382812 74.550781 92.25 75.679688 C 91.121094 76.8125 89.835938 77.699219 88.464844 78.339844 C 87.144531 81.085938 86.734375 84.242188 87.203125 87.394531 Z M 92.472656 97.816406 C 97.976562 99.0625 104.371094 97.257812 109.066406 92.558594 C 113.8125 87.816406 115.605469 81.347656 114.285156 75.808594 C 112.203125 73.804688 109.808594 72.351562 107.316406 71.46875 C 106.710938 76.25 104.476562 81.015625 100.648438 84.84375 C 97.085938 88.40625 92.714844 90.589844 88.273438 91.363281 C 89.183594 93.671875 90.589844 95.878906 92.472656 97.816406 Z M 116.097656 99.53125 C 120.585938 95.039062 121.363281 88.085938 118.644531 81.980469 C 118.058594 86.792969 115.816406 91.59375 111.960938 95.453125 C 108.148438 99.265625 103.40625 101.5 98.648438 102.117188 C 104.726562 104.785156 111.632812 103.992188 116.097656 99.53125 Z M 48.878906 59.839844 C 49.375 58.308594 50.960938 57.453125 52.421875 57.925781 C 52.578125 57.976562 52.726562 58.042969 52.867188 58.121094 C 55.953125 58.046875 63.050781 58.261719 70.476562 61.148438 C 71.125 59.566406 72.09375 58.089844 73.375 56.804688 C 74.660156 55.523438 76.136719 54.558594 77.71875 53.90625 C 74.828125 46.484375 74.613281 39.386719 74.6875 36.296875 C 74.613281 36.15625 74.546875 36.007812 74.492188 35.851562 C 74.023438 34.390625 74.878906 32.804688 76.410156 32.308594 C 77.941406 31.816406 79.566406 32.59375 80.039062 34.054688 C 80.511719 35.515625 79.652344 37.097656 78.121094 37.59375 C 77.851562 37.683594 77.578125 37.730469 77.308594 37.738281 C 77.21875 43.792969 78.164062 48.941406 79.667969 53.269531 C 84.039062 52.214844 88.839844 53.394531 92.25 56.804688 C 95.070312 59.625 96.363281 63.394531 96.128906 67.082031 C 103.179688 65.101562 111.46875 67.195312 117.46875 73.195312 C 125.050781 80.777344 126.402344 92.019531 121.152344 99.789062 L 130.40625 113.835938 L 116.359375 104.585938 C 108.589844 109.832031 97.347656 108.480469 89.765625 100.898438 C 83.765625 94.898438 81.671875 86.609375 83.652344 79.5625 C 79.960938 79.792969 76.195312 78.5 73.375 75.679688 C 69.960938 72.269531 68.785156 67.46875 69.839844 63.097656 C 65.507812 61.59375 60.363281 60.648438 54.308594 60.738281 C 54.296875 61.007812 54.253906 61.28125 54.164062 61.550781 C 53.667969 63.085938 52.082031 63.941406 50.625 63.46875 C 49.164062 62.996094 48.382812 61.371094 48.878906 59.839844 " fill-opacity="1" fill-rule="nonzero"/><path fill="#01cdc9" d="M 102.410156 64.867188 C 107.214844 62.078125 109.886719 61.523438 112.46875 60.988281 C 115.105469 60.445312 117.828125 59.882812 122.40625 57.109375 C 123.929688 56.183594 125.335938 55.078125 126.589844 53.828125 C 127.339844 53.074219 128.035156 52.269531 128.667969 51.425781 C 131.609375 51.863281 133.679688 53.015625 134.242188 54.8125 C 135.453125 58.683594 129.546875 66.277344 120.332031 66.855469 C 111.660156 67.402344 112.105469 64.402344 102.410156 64.867188 " fill-opacity="1" fill-rule="nonzero"/><path fill="#01cdc9" d="M 70.398438 110.019531 C 71.648438 108.769531 72.753906 107.359375 73.675781 105.835938 C 76.453125 101.257812 77.015625 98.535156 77.558594 95.902344 C 78.09375 93.316406 78.648438 90.644531 81.4375 85.839844 C 80.972656 95.535156 83.972656 95.089844 83.425781 103.765625 C 82.847656 112.976562 75.253906 118.882812 71.382812 117.671875 C 69.585938 117.109375 68.433594 115.039062 67.992188 112.097656 C 68.839844 111.464844 69.644531 110.773438 70.398438 110.019531 " fill-opacity="1" fill-rule="nonzero"/><path fill="#01cdc9" d="M 60.109375 92.699219 C 68.015625 84.789062 83.507812 79.839844 80.660156 84.613281 C 74.453125 95.019531 78.050781 96.132812 72.574219 105.164062 C 66.828125 114.640625 55.460938 116.695312 52.019531 113.253906 C 48.578125 109.808594 52.199219 100.609375 60.109375 92.699219 " fill-opacity="1" fill-rule="nonzero"/><path fill="#01cdc9" d="M 121.734375 56.003906 C 112.703125 61.480469 111.589844 57.886719 101.183594 64.089844 C 96.40625 66.9375 101.359375 51.449219 109.269531 43.539062 C 117.179688 35.628906 126.378906 32.007812 129.824219 35.449219 C 133.265625 38.890625 131.210938 50.257812 121.734375 56.003906 " fill-opacity="1" fill-rule="nonzero"/></svg>