<svg xmlns="http://www.w3.org/2000/svg" xmlns:xlink="http://www.w3.org/1999/xlink" width="500" zoomAndPan="magnify" viewBox="0 0 375 374.999991" height="500" preserveAspectRatio="xMidYMid meet" version="1.0"><defs><g/><clipPath id="e967768747"><path d="M 51.414062 67 L 266 67 L 266 281 L 51.414062 281 Z M 51.414062 67 " clip-rule="nonzero"/></clipPath><clipPath id="af42d0c95e"><path d="M 59 17.132812 L 323.582031 17.132812 L 323.582031 289.382812 L 59 289.382812 Z M 59 17.132812 " clip-rule="nonzero"/></clipPath></defs><g fill="#ffffff" fill-opacity="1"><g transform="translate(95.337203, 352.75773)"><g><path d="M 4.90625 0 L 2.671875 0 C 2.140625 0 1.96875 -0.285156 2.15625 -0.859375 L 16.515625 -45.484375 C 16.648438 -46.066406 16.984375 -46.359375 17.515625 -46.359375 L 20.90625 -46.359375 C 21.382812 -46.359375 21.722656 -46.066406 21.921875 -45.484375 L 36.265625 -0.859375 C 36.410156 -0.285156 36.242188 0 35.765625 0 L 33.453125 0 C 32.972656 0 32.660156 -0.285156 32.515625 -0.859375 L 28.625 -12.40625 L 9.734375 -12.40625 L 5.84375 -0.859375 C 5.644531 -0.285156 5.332031 0 4.90625 0 Z M 19.03125 -42.390625 L 10.734375 -15.640625 L 27.6875 -15.640625 L 19.328125 -42.390625 Z M 19.03125 -42.390625 "/></g></g></g><g fill="#ffffff" fill-opacity="1"><g transform="translate(142.69696, 352.75773)"><g><path d="M 10.453125 -3.25 L 24.296875 -3.25 C 26.503906 -3.25 28.195312 -3.859375 29.375 -5.078125 C 30.550781 -6.304688 31.140625 -8.070312 31.140625 -10.375 L 31.140625 -35.96875 C 31.140625 -38.28125 30.550781 -40.046875 29.375 -41.265625 C 28.195312 -42.492188 26.503906 -43.109375 24.296875 -43.109375 L 10.453125 -43.109375 C 9.972656 -43.109375 9.734375 -42.894531 9.734375 -42.46875 L 9.734375 -3.890625 C 9.734375 -3.460938 9.972656 -3.25 10.453125 -3.25 Z M 6.125 -0.859375 L 6.125 -45.484375 C 6.125 -46.066406 6.363281 -46.359375 6.84375 -46.359375 L 24.65625 -46.359375 C 27.78125 -46.359375 30.242188 -45.441406 32.046875 -43.609375 C 33.847656 -41.785156 34.75 -39.289062 34.75 -36.125 L 34.75 -10.234375 C 34.75 -7.066406 33.847656 -4.566406 32.046875 -2.734375 C 30.242188 -0.910156 27.78125 0 24.65625 0 L 6.84375 0 C 6.363281 0 6.125 -0.285156 6.125 -0.859375 Z M 6.125 -0.859375 "/></g></g></g><g fill="#ffffff" fill-opacity="1"><g transform="translate(191.786686, 352.75773)"><g><path d="M 4.90625 0 L 2.671875 0 C 2.140625 0 1.96875 -0.285156 2.15625 -0.859375 L 16.515625 -45.484375 C 16.648438 -46.066406 16.984375 -46.359375 17.515625 -46.359375 L 20.90625 -46.359375 C 21.382812 -46.359375 21.722656 -46.066406 21.921875 -45.484375 L 36.265625 -0.859375 C 36.410156 -0.285156 36.242188 0 35.765625 0 L 33.453125 0 C 32.972656 0 32.660156 -0.285156 32.515625 -0.859375 L 28.625 -12.40625 L 9.734375 -12.40625 L 5.84375 -0.859375 C 5.644531 -0.285156 5.332031 0 4.90625 0 Z M 19.03125 -42.390625 L 10.734375 -15.640625 L 27.6875 -15.640625 L 19.328125 -42.390625 Z M 19.03125 -42.390625 "/></g></g></g><g fill="#ffffff" fill-opacity="1"><g transform="translate(239.146443, 352.75773)"><g><path d="M 5.84375 -10.234375 L 5.84375 -12.828125 C 5.84375 -13.359375 6.101562 -13.625 6.625 -13.625 L 8.71875 -13.625 C 9.25 -13.625 9.515625 -13.359375 9.515625 -12.828125 L 9.515625 -10.453125 C 9.515625 -5.648438 11.847656 -3.25 16.515625 -3.25 L 24 -3.25 C 28.664062 -3.25 31 -5.675781 31 -10.53125 L 31 -13.546875 C 31 -15.660156 30.132812 -17.316406 28.40625 -18.515625 C 26.675781 -19.722656 24.582031 -20.59375 22.125 -21.125 C 19.675781 -21.65625 17.210938 -22.207031 14.734375 -22.78125 C 12.265625 -23.351562 10.164062 -24.410156 8.4375 -25.953125 C 6.707031 -27.492188 5.84375 -29.5625 5.84375 -32.15625 L 5.84375 -36.125 C 5.84375 -39.289062 6.753906 -41.785156 8.578125 -43.609375 C 10.398438 -45.441406 12.875 -46.359375 16 -46.359375 L 24.375 -46.359375 C 27.488281 -46.359375 29.957031 -45.441406 31.78125 -43.609375 C 33.613281 -41.785156 34.53125 -39.289062 34.53125 -36.125 L 34.53125 -34.09375 C 34.53125 -33.570312 34.265625 -33.3125 33.734375 -33.3125 L 31.65625 -33.3125 C 31.125 -33.3125 30.859375 -33.570312 30.859375 -34.09375 L 30.859375 -35.90625 C 30.859375 -40.707031 28.523438 -43.109375 23.859375 -43.109375 L 16.4375 -43.109375 C 11.820312 -43.109375 9.515625 -40.660156 9.515625 -35.765625 L 9.515625 -32.15625 C 9.515625 -28.832031 12.472656 -26.597656 18.390625 -25.453125 C 20.835938 -24.972656 23.296875 -24.421875 25.765625 -23.796875 C 28.242188 -23.171875 30.347656 -22.039062 32.078125 -20.40625 C 33.804688 -18.769531 34.671875 -16.554688 34.671875 -13.765625 L 34.671875 -10.234375 C 34.671875 -7.066406 33.757812 -4.566406 31.9375 -2.734375 C 30.113281 -0.910156 27.640625 0 24.515625 0 L 16 0 C 12.875 0 10.398438 -0.910156 8.578125 -2.734375 C 6.753906 -4.566406 5.84375 -7.066406 5.84375 -10.234375 Z M 5.84375 -10.234375 "/></g></g></g><g clip-path="url(#e967768747)"><path fill="#09181b" d="M 51.347656 153.300781 C 51.347656 137.414062 54.078125 122.164062 59.082031 107.988281 L 157.082031 67.625 L 155.746094 77.601562 L 155.746094 87.640625 L 160.488281 105.988281 L 162.882812 113.933594 L 166.304688 121.542969 L 175.789062 149.292969 L 173.394531 173.046875 L 175.308594 184.679688 L 180.894531 197.585938 L 198.253906 210.8125 L 218.808594 215.75 L 241.371094 207.167969 L 265.464844 231.261719 L 138.304688 280.28125 C 87.425781 260.558594 51.347656 211.144531 51.347656 153.300781 " fill-opacity="1" fill-rule="nonzero"/></g><g clip-path="url(#af42d0c95e)"><path fill="#172625" d="M 241.371094 207.167969 L 218.808594 215.75 L 198.253906 210.8125 L 180.894531 197.585938 L 175.308594 184.679688 L 173.394531 173.046875 L 175.789062 149.292969 L 166.304688 121.542969 L 162.882812 113.933594 L 160.488281 105.988281 L 155.746094 87.640625 L 155.746094 77.601562 L 157.082031 67.625 L 59.082031 107.988281 C 77.753906 55.070312 128.191406 17.148438 187.5 17.148438 C 262.691406 17.148438 323.648438 78.105469 323.648438 153.300781 C 323.648438 228.492188 262.691406 289.449219 187.5 289.449219 C 170.148438 289.449219 153.5625 286.199219 138.304688 280.28125 L 265.464844 231.261719 L 241.371094 207.167969 " fill-opacity="1" fill-rule="nonzero"/></g><path fill="#01cdc9" d="M 178.746094 178.183594 C 186.292969 177.035156 193.820312 173.367188 199.921875 167.265625 C 206.492188 160.699219 210.230469 152.484375 211.058594 144.371094 C 205.179688 143.722656 199.339844 144.609375 194.210938 147.074219 C 192.925781 149.824219 191.148438 152.40625 188.875 154.675781 C 186.605469 156.949219 184.027344 158.722656 181.273438 160.011719 C 178.625 165.527344 177.800781 171.859375 178.746094 178.183594 Z M 189.320312 199.101562 C 200.371094 201.605469 213.199219 197.984375 222.632812 188.554688 C 232.152344 179.035156 235.75 166.050781 233.101562 154.929688 C 228.921875 150.914062 224.117188 147.996094 219.113281 146.222656 C 217.898438 155.816406 213.417969 165.382812 205.730469 173.070312 C 198.578125 180.222656 189.804688 184.601562 180.894531 186.152344 C 182.722656 190.789062 185.539062 195.222656 189.320312 199.101562 Z M 236.746094 202.546875 C 245.753906 193.53125 247.308594 179.570312 241.855469 167.320312 C 240.675781 176.976562 236.175781 186.617188 228.4375 194.359375 C 220.78125 202.015625 211.269531 206.503906 201.714844 207.738281 C 213.921875 213.089844 227.78125 211.503906 236.746094 202.546875 Z M 101.824219 122.882812 C 102.816406 119.8125 106 118.089844 108.929688 119.035156 C 109.246094 119.140625 109.542969 119.273438 109.824219 119.425781 C 116.023438 119.277344 130.269531 119.710938 145.167969 125.503906 C 146.476562 122.335938 148.414062 119.367188 150.992188 116.792969 C 153.566406 114.214844 156.535156 112.277344 159.703125 110.96875 C 153.910156 96.070312 153.480469 81.824219 153.628906 75.625 C 153.472656 75.34375 153.339844 75.046875 153.234375 74.730469 C 152.289062 71.800781 154.011719 68.617188 157.082031 67.625 C 160.15625 66.628906 163.417969 68.195312 164.367188 71.125 C 165.316406 74.054688 163.59375 77.238281 160.515625 78.230469 C 159.972656 78.40625 159.425781 78.5 158.882812 78.523438 C 158.703125 90.671875 160.605469 101.003906 163.621094 109.695312 C 172.394531 107.578125 182.027344 109.941406 188.875 116.792969 C 194.535156 122.449219 197.128906 130.011719 196.664062 137.417969 C 210.8125 133.441406 227.453125 137.644531 239.492188 149.6875 C 254.714844 164.90625 257.421875 187.472656 246.890625 203.066406 L 265.464844 231.261719 L 237.265625 212.691406 C 221.671875 223.222656 199.105469 220.511719 183.886719 205.292969 C 171.84375 193.25 167.640625 176.613281 171.617188 162.464844 C 164.210938 162.929688 156.648438 160.335938 150.992188 154.675781 C 144.140625 147.828125 141.777344 138.195312 143.898438 129.421875 C 135.203125 126.40625 124.871094 124.503906 112.722656 124.683594 C 112.699219 125.226562 112.605469 125.773438 112.429688 126.316406 C 111.4375 129.394531 108.253906 131.117188 105.324219 130.167969 C 102.394531 129.214844 100.828125 125.957031 101.824219 122.882812 " fill-opacity="1" fill-rule="nonzero"/><path fill="#01cdc9" d="M 209.265625 132.972656 C 218.914062 127.371094 224.273438 126.261719 229.460938 125.1875 C 234.746094 124.09375 240.214844 122.964844 249.398438 117.398438 C 252.460938 115.539062 255.289062 113.328125 257.796875 110.816406 C 259.308594 109.304688 260.703125 107.6875 261.96875 105.988281 C 267.878906 106.875 272.03125 109.183594 273.160156 112.792969 C 275.589844 120.558594 263.734375 135.804688 245.242188 136.964844 C 227.835938 138.058594 228.726562 132.039062 209.265625 132.972656 " fill-opacity="1" fill-rule="nonzero"/><path fill="#01cdc9" d="M 145.015625 223.597656 C 147.527344 221.085938 149.738281 218.261719 151.597656 215.199219 C 157.164062 206.015625 158.292969 200.546875 159.386719 195.261719 C 160.460938 190.074219 161.570312 184.714844 167.171875 175.066406 C 166.238281 194.527344 172.257812 193.636719 171.164062 211.042969 C 170.003906 229.535156 154.757812 241.390625 146.992188 238.960938 C 143.382812 237.832031 141.074219 233.675781 140.1875 227.769531 C 141.886719 226.503906 143.503906 225.109375 145.015625 223.597656 " fill-opacity="1" fill-rule="nonzero"/><path fill="#01cdc9" d="M 124.359375 188.835938 C 140.234375 172.960938 171.328125 163.019531 165.613281 172.601562 C 153.15625 193.488281 160.371094 195.726562 149.378906 213.855469 C 137.847656 232.875 115.035156 237 108.125 230.089844 C 101.214844 223.179688 108.484375 204.710938 124.359375 188.835938 " fill-opacity="1" fill-rule="nonzero"/><path fill="#01cdc9" d="M 248.054688 115.179688 C 229.925781 126.171875 227.691406 118.957031 206.804688 131.414062 C 197.222656 137.125 207.160156 106.035156 223.039062 90.160156 C 238.910156 74.285156 257.378906 67.019531 264.289062 73.925781 C 271.199219 80.835938 267.078125 103.648438 248.054688 115.179688 " fill-opacity="1" fill-rule="nonzero"/></svg>